<svg width="109" height="108" viewBox="0 0 109 108" fill="none" xmlns="http://www.w3.org/2000/svg">
<g filter="url(#filter0_d_50_2)">
<path d="M74.7434 50.7071C75.134 50.3166 75.134 49.6834 74.7434 49.2929L68.3795 42.9289C67.989 42.5384 67.3558 42.5384 66.9653 42.9289C66.5747 43.3195 66.5747 43.9526 66.9653 44.3431L72.6221 50L66.9653 55.6569C66.5747 56.0474 66.5747 56.6805 66.9653 57.0711C67.3558 57.4616 67.989 57.4616 68.3795 57.0711L74.7434 50.7071ZM34.0155 51H74.0363V49H34.0155V51Z" fill="white"/>
<path d="M103.052 50C103.052 77.0615 81.1029 99 54.026 99C26.9492 99 5 77.0615 5 50C5 22.9385 26.9492 1 54.026 1C81.1029 1 103.052 22.9385 103.052 50Z" stroke="white" stroke-width="2"/>
</g>
<defs>
<filter id="filter0_d_50_2" x="0" y="0" width="108.052" height="108" filterUnits="userSpaceOnUse" color-interpolation-filters="sRGB">
<feFlood flood-opacity="0" result="BackgroundImageFix"/>
<feColorMatrix in="SourceAlpha" type="matrix" values="0 0 0 0 0 0 0 0 0 0 0 0 0 0 0 0 0 0 127 0" result="hardAlpha"/>
<feOffset dy="4"/>
<feGaussianBlur stdDeviation="2"/>
<feComposite in2="hardAlpha" operator="out"/>
<feColorMatrix type="matrix" values="0 0 0 0 0 0 0 0 0 0 0 0 0 0 0 0 0 0 0.25 0"/>
<feBlend mode="normal" in2="BackgroundImageFix" result="effect1_dropShadow_50_2"/>
<feBlend mode="normal" in="SourceGraphic" in2="effect1_dropShadow_50_2" result="shape"/>
</filter>
</defs>
</svg>
