<svg width="183" height="51" viewBox="0 0 183 51" fill="none" xmlns="http://www.w3.org/2000/svg">
<path d="M14.1926 24.1539C14.1926 23.2386 13.8692 22.5387 13.2226 22.054C12.576 21.5587 11.412 21.0418 9.73072 20.5034C8.04945 19.9542 6.71844 19.4157 5.7377 18.888C3.06491 17.445 1.72851 15.5014 1.72851 13.0569C1.72851 11.7862 2.08416 10.6555 2.79548 9.66479C3.51755 8.66332 4.5468 7.88259 5.8832 7.32262C7.23037 6.76266 8.73921 6.48267 10.4097 6.48267C12.091 6.48267 13.589 6.78958 14.9038 7.40338C16.2187 8.00642 17.2371 8.86253 17.9593 9.9717C18.6921 11.0809 19.0585 12.3408 19.0585 13.7515H14.2087C14.2087 12.6746 13.8692 11.84 13.1903 11.2478C12.5113 10.6447 11.5575 10.3432 10.3289 10.3432C9.14336 10.3432 8.22189 10.5963 7.56447 11.1024C6.90704 11.5977 6.57833 12.2546 6.57833 13.0731C6.57833 13.8377 6.96094 14.4783 7.72612 14.9952C8.5021 15.5121 9.63911 15.9968 11.1372 16.449C13.8961 17.2782 15.9062 18.3065 17.1671 19.5342C18.4281 20.7618 19.0585 22.291 19.0585 24.1216C19.0585 26.1569 18.2879 27.756 16.7469 28.9191C15.2057 30.0712 13.131 30.6474 10.5229 30.6474C8.71226 30.6474 7.06331 30.3189 5.57604 29.662C4.08877 28.9945 2.95175 28.0844 2.16499 26.9323C1.38902 25.7799 1.00104 24.4447 1.00104 22.9263H5.86703C5.86703 25.5215 7.41898 26.8191 10.5229 26.8191C11.676 26.8191 12.576 26.5877 13.2226 26.1245C13.8692 25.6508 14.1926 24.9938 14.1926 24.1539ZM60.185 26.4315H70.4829V30.3243H55.3352V6.80573H60.185V26.4315ZM86.8914 25.4785H78.388L76.7715 30.3243H71.6145L80.3766 6.80573H84.8707L93.6812 30.3243H88.5242L86.8914 25.4785ZM79.6976 21.5533H85.582L82.6236 12.75L79.6976 21.5533ZM104.593 21.7148H100.73V30.3243H95.8797V6.80573H104.626C107.406 6.80573 109.551 7.42493 111.06 8.66332C112.569 9.90169 113.323 11.6516 113.323 13.9131C113.323 15.5175 112.973 16.8582 112.272 17.935C111.583 19.0012 110.532 19.8518 109.12 20.4872L114.212 30.0981V30.3243H109.007L104.593 21.7148ZM100.73 17.7896H104.642C105.86 17.7896 106.803 17.4828 107.471 16.869C108.139 16.2445 108.473 15.3883 108.473 14.3007C108.473 13.1915 108.155 12.3192 107.519 11.6839C106.894 11.0485 105.93 10.7309 104.626 10.7309H100.73V17.7896ZM139.431 20.1319H130.119V26.4315H141.048V30.3243H125.27V6.80573H141.016V10.7309H130.119V16.336H139.431V20.1319ZM152.315 14.9145L156.729 6.80573H162.306L155.452 18.4681L162.484 30.3243H156.842L152.315 22.0863L147.789 30.3243H142.147L149.18 18.4681L142.325 6.80573H147.902L152.315 14.9145ZM179.103 20.1319H169.791V26.4315H180.719V30.3243H164.941V6.80573H180.686V10.7309H169.791V16.336H179.103V20.1319Z" fill="white"/>
<path d="M37.2453 10.1857C31.7384 10.1857 27.2581 14.6624 27.2581 20.1647C27.2581 25.6672 31.7384 30.1439 37.2453 30.1439C42.7523 30.1439 47.2325 25.6673 47.2325 20.1647C47.2325 14.6624 42.7523 10.1857 37.2453 10.1857ZM37.2453 28.3869C32.7078 28.3869 29.0165 24.6985 29.0165 20.1647C29.0165 15.6312 32.7078 11.9427 37.2453 11.9427C41.7826 11.9427 45.4739 15.6312 45.4739 20.1647C45.4739 24.6983 41.7826 28.3869 37.2453 28.3869Z" fill="white"/>
<path d="M37.246 3.62555C36.7601 3.62555 36.3663 4.01886 36.3663 4.5041V7.96326C36.3663 8.4486 36.7602 8.84191 37.246 8.84191C37.732 8.84191 38.1258 8.4486 38.1258 7.96336V4.5041C38.1258 4.01895 37.732 3.62555 37.246 3.62555Z" fill="white"/>
<path d="M48.9502 8.46982C48.6067 8.12668 48.0501 8.12668 47.7066 8.46982L45.2586 10.9159C44.9152 11.2591 44.9152 11.8152 45.2586 12.1583C45.4302 12.3299 45.6552 12.4156 45.8803 12.4156C46.1053 12.4156 46.3303 12.3299 46.502 12.1583L48.9501 9.71214C49.2936 9.36911 49.2936 8.81287 48.9502 8.46982Z" fill="white"/>
<path d="M29.2326 28.1713C28.8891 27.8284 28.3324 27.8282 27.9889 28.1713L25.5407 30.6174C25.1972 30.9606 25.1972 31.5168 25.5406 31.86C25.7125 32.0316 25.9373 32.1173 26.1625 32.1173C26.3875 32.1173 26.6125 32.0316 26.7841 31.86L29.2323 29.4138C29.5758 29.0707 29.5758 28.5144 29.2326 28.1713Z" fill="white"/>
<path d="M52.9192 19.2863H49.4569C48.9715 19.2863 48.5778 19.6795 48.5778 20.1648C48.5778 20.6499 48.9712 21.0434 49.4569 21.0434H52.9192C53.4049 21.0434 53.7985 20.65 53.7985 20.1648C53.7984 19.6795 53.4048 19.2863 52.9192 19.2863Z" fill="white"/>
<path d="M25.0339 19.2863H21.5719C21.0861 19.2863 20.6926 19.6795 20.6926 20.1648C20.6926 20.6499 21.0861 21.0434 21.5719 21.0434H25.0339C25.5197 21.0434 25.9132 20.65 25.9132 20.1648C25.9132 19.6795 25.5197 19.2863 25.0339 19.2863Z" fill="white"/>
<path d="M29.2325 10.9159L26.7843 8.46987C26.4411 8.12673 25.8844 8.12692 25.541 8.46987C25.1975 8.81302 25.1975 9.36925 25.5411 9.7124L27.9892 12.1585C28.1608 12.33 28.3858 12.4159 28.6108 12.4159C28.8358 12.4159 29.0608 12.3301 29.2327 12.1585C29.5759 11.8153 29.5759 11.259 29.2325 10.9159Z" fill="white"/>
<path d="M48.9502 30.6175L46.5022 28.1714C46.1588 27.8282 45.6022 27.8282 45.2586 28.1714C44.9152 28.5145 44.9152 29.0707 45.2586 29.4137L47.7066 31.8598C47.8784 32.0314 48.1034 32.1172 48.3285 32.1172C48.5535 32.1172 48.7785 32.0314 48.9502 31.8598C49.2937 31.5167 49.2937 30.9606 48.9502 30.6175Z" fill="white"/>
<path d="M60.2886 48.7499L60.5328 46.9708L60.644 46.1609L65.5091 46.8276C65.9902 46.8937 66.4337 46.5575 66.4997 46.0767C66.5657 45.5958 66.2292 45.1528 65.748 45.0869L60.8829 44.4202L61.4852 40.0331L66.3502 40.6998C66.8312 40.7658 67.2749 40.4296 67.3408 39.9488C67.4069 39.4679 67.0703 39.025 66.5893 38.959L61.7242 38.2923L61.8354 37.4824L62.0795 35.7033C62.1456 35.2225 61.809 34.7795 61.328 34.7136C60.8469 34.6476 60.4033 34.9838 60.3373 35.4646L60.2126 36.3733L55.9098 35.7835C53.1076 35.3995 50.4955 37.1404 49.7073 39.7669L41.962 38.7055C39.4268 38.358 37.647 36.0144 37.9947 33.4812L38.2759 31.4335C38.3418 30.9527 38.0054 30.5097 37.5242 30.4437C37.043 30.3778 36.5996 30.7138 36.5336 31.1948L36.2526 33.2425C35.773 36.7356 38.227 39.967 41.723 40.4462L49.4682 41.5076C49.5197 44.2491 51.5662 46.6286 54.3684 47.0126L58.671 47.6023L58.5463 48.5109C58.4804 48.9917 58.8169 49.4347 59.298 49.5007C59.7792 49.5667 60.2227 49.2306 60.2886 48.7499ZM54.6074 45.272C52.4696 44.9789 50.9691 43.0028 51.2623 40.867C51.5554 38.731 53.5332 37.2315 55.6709 37.5245L59.9737 38.1142L58.9102 45.8618L54.6074 45.2721V45.272Z" fill="white"/>
<path d="M104.343 3.13544C104.829 3.13544 105.222 2.74211 105.222 2.25691C105.222 1.77169 104.829 1.37836 104.343 1.37836C103.857 1.37836 103.463 1.77169 103.463 2.25691C103.463 2.74211 103.857 3.13544 104.343 3.13544Z" fill="white"/>
<path d="M100.204 3.13544C100.69 3.13544 101.084 2.74211 101.084 2.25691C101.084 1.77169 100.69 1.37836 100.204 1.37836C99.7184 1.37836 99.3245 1.77169 99.3245 2.25691C99.3245 2.74211 99.7184 3.13544 100.204 3.13544Z" fill="white"/>
</svg>
